<?xml version="1.0" encoding="utf-8"?>
<!-- Generator: Adobe Illustrator 27.2.0, SVG Export Plug-In . SVG Version: 6.00 Build 0)  -->
<svg version="1.1" id="Layer_1" xmlns="http://www.w3.org/2000/svg" xmlns:xlink="http://www.w3.org/1999/xlink" x="0px" y="0px"
	 viewBox="0 0 92 24" style="enable-background:new 0 0 92 24;" xml:space="preserve">
<style type="text/css">
	.st0{fill:#1EA2B4;}
</style>
<g>
	<g>
		<g>
			<path class="st0" d="M90.4,7c0.1,0,0.2,0,0.3,0.1c0.1,0.1,0.1,0.2,0.1,0.3v2.2c0,0.1,0,0.2-0.1,0.3c-0.1,0.1-0.2,0.1-0.3,0.1
				h-1.9v8.8c0,0.1,0,0.2-0.1,0.3c-0.1,0.1-0.2,0.1-0.3,0.1h-2.9c-0.1,0-0.2,0-0.3-0.1c-0.1-0.1-0.1-0.2-0.1-0.3V9.9h-1.9
				c-0.1,0-0.2,0-0.3-0.1c-0.1-0.1-0.1-0.2-0.1-0.3V7.3c0-0.1,0-0.2,0.1-0.3C82.7,7,82.8,7,82.9,7h1.9V3.9c0-0.1,0-0.2,0.1-0.3
				c0.1-0.1,0.2-0.1,0.3-0.1h2.9c0.1,0,0.2,0,0.3,0.1c0.1,0.1,0.1,0.2,0.1,0.3V7H90.4z"/>
			<path class="st0" d="M82.1,12.9c0,0.5-0.1,0.9-0.2,1.2c-0.1,0.2-0.3,0.3-0.7,0.3h-7.2c0.2,0.7,0.5,1.2,1,1.5
				c0.5,0.3,1.2,0.5,2,0.5c0.4,0,0.8,0,1.1-0.1c0.4-0.1,0.8-0.3,1.2-0.6c0.1-0.1,0.2-0.1,0.3-0.1c0.1,0,0.2,0,0.3,0.1l1.3,1.2
				c0.1,0.1,0.1,0.1,0.1,0.2s0,0.2-0.1,0.3c-0.6,0.6-1.2,1-2,1.4c-0.7,0.3-1.5,0.5-2.4,0.5c-1.2,0-2.3-0.3-3.3-0.8
				c-0.9-0.6-1.7-1.3-2.2-2.3c-0.5-0.9-0.8-2-0.8-3.1c0-1.1,0.3-2.2,0.8-3.1c0.5-0.9,1.3-1.7,2.2-2.2c0.9-0.6,1.9-0.8,3.1-0.8
				c1.1,0,2.1,0.3,2.9,0.8c0.9,0.5,1.5,1.3,2,2.2C81.9,10.8,82.1,11.8,82.1,12.9z M76.5,10c-0.6,0-1.2,0.2-1.6,0.5
				c-0.5,0.3-0.7,0.8-0.9,1.5h4.9c-0.1-0.7-0.4-1.2-0.8-1.5C77.6,10.2,77.1,10,76.5,10z"/>
			<path class="st0" d="M68.9,7.2c0.1,0,0.2,0,0.3,0.1c0.1,0.1,0.1,0.2,0.1,0.3v11.5c0,1.2-0.3,2.2-1,2.9c-0.6,0.8-1.4,1.3-2.4,1.6
				C64.9,23.8,64,24,62.9,24c-1,0-2-0.1-2.9-0.4c-0.9-0.3-1.7-0.7-2.3-1.1c-0.1-0.1-0.1-0.2-0.1-0.3c0-0.1,0-0.2,0-0.2l0.9-1.7
				c0.1-0.1,0.2-0.2,0.3-0.2c0.1,0,0.1,0,0.2,0c0.5,0.3,1.1,0.6,1.7,0.7c0.6,0.1,1.2,0.2,2,0.2c0.8,0,1.6-0.2,2.2-0.5
				c0.7-0.3,1-0.9,1-1.7v-1.1c-0.9,1.1-2.1,1.6-3.5,1.6c-1.1,0-2.1-0.3-2.9-0.8c-0.9-0.6-1.6-1.3-2.1-2.3c-0.5-0.9-0.7-2-0.7-3.1
				c0-1.1,0.2-2.1,0.7-3.1C58,9,58.6,8.3,59.5,7.7c0.9-0.6,1.8-0.8,2.9-0.8c1.3,0,2.4,0.5,3.4,1.6l0.1-1c0-0.2,0.2-0.4,0.4-0.4H68.9
				z M62.9,15.9c0.7,0,1.4-0.3,1.9-0.9c0.5-0.6,0.8-1.2,0.8-2c0-0.8-0.3-1.4-0.8-2c-0.5-0.6-1.1-0.9-1.9-0.9c-0.8,0-1.4,0.3-1.9,0.8
				c-0.5,0.5-0.8,1.2-0.8,2c0,0.8,0.2,1.5,0.7,2C61.5,15.6,62.1,15.9,62.9,15.9z"/>
			<path class="st0" d="M55.5,7c0.1,0,0.2,0,0.3,0.1c0.1,0.1,0.1,0.2,0.1,0.3v2.2c0,0.1,0,0.2-0.1,0.3c-0.1,0.1-0.2,0.1-0.3,0.1
				h-1.9v8.8c0,0.1,0,0.2-0.1,0.3c-0.1,0.1-0.2,0.1-0.3,0.1h-2.9c-0.1,0-0.2,0-0.3-0.1C50,19,50,18.9,50,18.8V9.9H48
				c-0.1,0-0.2,0-0.3-0.1c-0.1-0.1-0.1-0.2-0.1-0.3V7.3c0-0.1,0-0.2,0.1-0.3C47.8,7,47.9,7,48,7H50V3.9c0-0.1,0-0.2,0.1-0.3
				c0.1-0.1,0.2-0.1,0.3-0.1h2.9c0.1,0,0.2,0,0.3,0.1c0.1,0.1,0.1,0.2,0.1,0.3V7H55.5z"/>
			<path class="st0" d="M44.5,6c-0.5,0-1-0.2-1.4-0.6C42.8,5,42.6,4.6,42.6,4c0-0.6,0.2-1,0.6-1.4C43.5,2.2,44,2,44.5,2
				s1,0.2,1.4,0.6C46.3,3,46.5,3.5,46.5,4c0,0.5-0.2,1-0.6,1.4C45.5,5.8,45.1,6,44.5,6z M42.7,7.3c0-0.1,0-0.2,0.1-0.3
				C42.9,7,43,7,43.1,7H46c0.1,0,0.2,0,0.3,0.1c0.1,0.1,0.1,0.2,0.1,0.3v11.4c0,0.1,0,0.2-0.1,0.3c-0.1,0.1-0.2,0.1-0.3,0.1h-2.9
				c-0.1,0-0.2,0-0.3-0.1c-0.1-0.1-0.1-0.2-0.1-0.3V7.3z"/>
			<path class="st0" d="M38.1,10c0.9,0.2,1.7,0.7,2.3,1.5c0.7,0.8,1,1.7,1,2.7c0,1.6-0.5,2.9-1.6,3.7c-1,0.8-2.6,1.2-4.7,1.2h-5.9
				c-0.1,0-0.2,0-0.3-0.1c-0.1-0.1-0.1-0.2-0.1-0.3V2.4c0-0.1,0-0.2,0.1-0.3C28.9,2.1,29,2,29.1,2H35c1.1,0,2,0.2,2.7,0.6
				c0.8,0.4,1.4,0.9,1.7,1.6c0.4,0.7,0.6,1.4,0.6,2.3c0,0.8-0.2,1.6-0.6,2.2C39.1,9.3,38.6,9.8,38.1,10z M36.6,7
				c0-1-0.6-1.6-1.9-1.6h-2.2v3.3h2.2c0.6,0,1.1-0.1,1.4-0.4C36.4,8,36.6,7.5,36.6,7z M35.2,15.8c0.7,0,1.3-0.2,1.8-0.5
				c0.4-0.3,0.7-0.9,0.7-1.5c0-0.7-0.2-1.2-0.7-1.5c-0.4-0.3-1-0.5-1.8-0.5h-2.7v4H35.2z"/>
			<path class="st0" d="M8.1,0.5C8.4,0.2,8.8,0,9.2,0l2.9,0c0.4,0,0.6,0.4,0.3,0.7L6.7,6.9h3.2l3.2,3.4H6.7l6.4,6.9H9.2
				c-0.4,0-0.9-0.2-1.2-0.5l-6.5-7C1,9.1,1,8.1,1.6,7.5L8.1,0.5z"/>
			<path class="st0" d="M17,23.5c-0.3,0.3-0.7,0.5-1.2,0.5h-2.9c-0.4,0-0.6-0.4-0.3-0.7l5.8-6.2h-3.2l-3.2-3.4h6.4l-6.4-6.9h3.9
				c0.4,0,0.9,0.2,1.2,0.5l6.5,7c0.6,0.6,0.6,1.6,0,2.2L17,23.5z"/>
		</g>
	</g>
</g>
</svg>
